<?xml version="1.0" standalone="no"?>
<!DOCTYPE svg PUBLIC "-//W3C//DTD SVG 20010904//EN"
 "http://www.w3.org/TR/2001/REC-SVG-20010904/DTD/svg10.dtd">
<svg version="1.0" xmlns="http://www.w3.org/2000/svg"
 width="472.000000pt" height="472.000000pt" viewBox="0 0 472.000000 472.000000"
 preserveAspectRatio="xMidYMid meet">
<metadata>
Created by potrace 1.16, written by Peter Selinger 2001-2019
</metadata>
<g transform="translate(0.000000,472.000000) scale(0.100000,-0.100000)"
fill="#000000" stroke="none">
<path d="M1406 978 c13 -62 56 -266 95 -453 40 -187 77 -345 83 -352 11 -11
476 -177 481 -171 1 2 28 45 60 96 l57 92 48 0 49 0 57 -93 c31 -50 58 -93 59
-95 5 -6 470 159 481 171 7 7 53 208 103 447 51 239 94 443 97 453 5 15 -2 17
-45 17 l-49 0 -37 -117 c-20 -65 -74 -235 -118 -378 l-82 -260 -154 -97 -153
-97 -54 42 c-30 23 -54 44 -54 47 0 3 54 59 120 125 66 66 120 122 120 126 0
3 -76 11 -170 17 -131 9 -209 9 -341 0 l-170 -12 126 -126 126 -126 -59 -47
-59 -46 -154 97 -153 97 -88 280 c-49 154 -102 324 -119 378 l-30 97 -48 0
-49 0 24 -112z"/>
</g>
</svg>
